HIERARCHY
ROOT Hips
{
	OFFSET 0.00000 0.00000 0.00000
	CHANNELS 6 Xposition Yposition Zposition Zrotation Yrotation Xrotation 
	JOINT LHipJoint
	{
		OFFSET 0 0 0
		CHANNELS 3 Zrotation Yrotation Xrotation
		JOINT LeftHip
		{
			OFFSET 1.28858 -1.83292 1.03970
			CHANNELS 3 Zrotation Yrotation Xrotation
			JOINT LeftKnee
			{
				OFFSET 2.47846 -6.80952 0.00000
				CHANNELS 3 Zrotation Yrotation Xrotation
				JOINT LeftAnkle
				{
					OFFSET 2.75274 -7.56311 0.00000
					CHANNELS 3 Zrotation Yrotation Xrotation
					JOINT LeftToe
					{
						OFFSET 0.12848 -0.35301 1.68223
						CHANNELS 3 Zrotation Yrotation Xrotation
						End Site
						{
							OFFSET 0.00000 -0.00000 0.87311
						}
					}
				}
			}
		}
	}
	JOINT RHipJoint
	{
		OFFSET 0 0 0
		CHANNELS 3 Zrotation Yrotation Xrotation
		JOINT RightHip
		{
			OFFSET -1.31183 -1.83292 1.03970
			CHANNELS 3 Zrotation Yrotation Xrotation
			JOINT RightKnee
			{
				OFFSET -2.44740 -6.72417 0.00000
				CHANNELS 3 Zrotation Yrotation Xrotation
				JOINT RightAnkle
				{
					OFFSET -2.67343 -7.34519 0.00000
					CHANNELS 3 Zrotation Yrotation Xrotation
					JOINT RightToe
					{
						OFFSET -0.16914 -0.46471 1.77626
						CHANNELS 3 Zrotation Yrotation Xrotation
						End Site
						{
							OFFSET -0.00000 -0.00000 0.92777
						}
					}
				}
			}
		}
	}
	JOINT lowerback
	{
		OFFSET 0 0 0
		CHANNELS 3 Zrotation Yrotation Xrotation
		JOINT Chest
		{
			OFFSET 0.01249 2.14252 0.03842
			CHANNELS 3 Zrotation Yrotation Xrotation
			JOINT Chest2
			{
				OFFSET -0.02957 2.14199 -0.03751
				CHANNELS 3 Zrotation Yrotation Xrotation
				JOINT lowerneck
				{
					OFFSET 0 0 0
					CHANNELS 3 Zrotation Yrotation Xrotation
					JOINT Neck
					{
						OFFSET -0.01678 1.65709 -0.05476
						CHANNELS 3 Zrotation Yrotation Xrotation
						JOINT Head
						{
							OFFSET 0.07912 1.58331 -0.11843
							CHANNELS 3 Zrotation Yrotation Xrotation
							End Site
							{
								OFFSET 0.03298 1.73940 -0.04271
							}
						}
					}
				}
				JOINT LeftCollar
				{
					OFFSET 0 0 0
					CHANNELS 3 Zrotation Yrotation Xrotation
					JOINT LeftShoulder
					{
						OFFSET 3.39556 1.16496 0.08673
CHANNELS 3 Zrotation Xrotation Yrotation
						JOINT LeftElbow
						{
OFFSET 0 -5.239100 -0.000000
CHANNELS 3 Zrotation Xrotation Yrotation
							JOINT LeftWrist
							{
OFFSET 0 -3.314670 0.000000
CHANNELS 3 Zrotation Xrotation Yrotation
								JOINT lhand
								{
									OFFSET 0 0 0
CHANNELS 3 Zrotation Xrotation Yrotation
									JOINT LFingers
									{
OFFSET 0 -0.965900 0.000000
CHANNELS 3 Zrotation Xrotation Yrotation
										End Site
										{
OFFSET 0 -0.778730 0.000000
										}
									}
								}
								JOINT LThumb
								{
OFFSET 0 0.000000 0.000000
CHANNELS 3 Zrotation Xrotation Yrotation
									End Site
									{
OFFSET 0 -0.790620 0.790620
									}
								}
							}
						}
					}
				}
				JOINT RightCollar
				{
					OFFSET 0 0 0
					CHANNELS 3 Zrotation Yrotation Xrotation
					JOINT RightShoulder
					{
						OFFSET -3.27193 1.31331 0.33940
CHANNELS 3 Zrotation Xrotation Yrotation
						JOINT RightElbow
						{
OFFSET 0 -5.302520 0.000000
CHANNELS 3 Zrotation Xrotation Yrotation
							JOINT RightWrist
							{
OFFSET 0 -3.678750 0.000000
CHANNELS 3 Zrotation Xrotation Yrotation
								JOINT rhand
								{
									OFFSET 0 0 0
CHANNELS 3 Zrotation Xrotation Yrotation
									JOINT RFingers
									{
OFFSET 0 -0.594810 0.000000
CHANNELS 3 Zrotation Xrotation Yrotation
										End Site
										{
OFFSET 0 -0.479550 0.000000
										}
									}
								}
								JOINT RThumb
								{
OFFSET 0 0.000000 0.000000
CHANNELS 3 Zrotation Xrotation Yrotation
									End Site
									{
OFFSET 0 -0.486870 0.486870
									}
								}
							}
						}
					}
				}
			}
		}
	}
}
MOTION
Frames: 11
Frame Time: 0.008333333333333333
11.157408 21.546429 13.940676 6.506486 -4.840767 13.178610 0.000000 0.000000 0.000000 -19.593854 -9.385052 -36.509132 4.348277 12.602753 37.910460 0.046891 -0.840370 -3.880380 0.295979 3.494694 9.659566 0.000000 0.000000 0.000000 2.857832 1.029421 -35.762130 -3.190708 -10.986145 32.246031 -0.036130 -0.976039 -4.111162 -0.740140 -5.487122 15.305391 -3.129019 0.453442 11.824053 -1.207281 0.148435 2.173472 0.480740 0.107462 -4.356814 -1.025367 -1.811260 -1.493944 2.899756 -2.168122 -13.740001 1.218412 -1.157757 -4.195105 0.000000 0.000000 0.000000 13.354187 14.589973 -26.779549 3.138335 -5.416843 0.148536 -3.171275 9.512141 10.305475 0.000000 0.000000 0.000000 -7.125000 0.000000 0.000000 -21.084326 19.920032 -13.579673 0.000000 0.000000 0.000000 -9.496940 22.498106 -20.097350 -5.619014 -9.625275 -0.473451 -10.883344 47.937717 47.537656 0.000000 0.000000 0.000000 7.125000 0.000000 0.000000 49.740616 72.846403 -35.094850
11.205434 21.420761 13.762929 6.412414 -5.658915 14.848857 0.000000 0.000000 0.000000 -18.261644 -10.869971 -41.516520 5.308387 13.712391 42.117799 0.042436 -1.241672 -3.660466 0.219345 3.011827 8.311993 0.000000 0.000000 0.000000 2.051549 2.003711 -41.444742 -4.194848 -12.398694 37.182121 -0.032910 0.353709 -3.357815 -0.472995 -4.389452 12.178418 -2.901861 0.590811 12.873696 -1.297568 0.318747 2.547480 0.226552 0.186290 -4.546286 -0.826642 -1.681978 -0.596829 2.802628 -1.961722 -16.411204 1.132374 -1.086649 -4.997920 0.000000 0.000000 0.000000 13.392734 20.179994 -26.113298 3.190276 -5.505832 0.153454 -3.423626 8.104726 10.249899 0.000000 0.000000 0.000000 -7.125000 0.000000 0.000000 -21.259862 19.971578 -13.683609 0.000000 0.000000 0.000000 -9.187459 27.671050 -25.424484 -5.525632 -9.468645 -0.457974 -10.421180 49.174815 47.763551 0.000000 0.000000 0.000000 7.125000 0.000000 0.000000 50.751862 72.808870 -35.864298
11.253719 21.262645 13.588652 6.366821 -6.381762 16.584476 0.000000 0.000000 0.000000 -16.749837 -12.422117 -46.618574 6.326314 14.735263 46.273953 0.035324 -1.835578 -3.386198 0.177581 2.714021 7.483562 0.000000 0.000000 0.000000 1.007010 2.960978 -47.172222 -5.316861 -13.728779 42.167833 -0.024492 1.731627 -2.859840 -0.244949 -3.178076 8.775503 -2.744887 0.679299 13.645320 -1.414679 0.424471 2.806938 -0.007582 0.234597 -4.697771 -0.613331 -1.587291 0.278211 2.701482 -1.807847 -18.628795 1.041622 -1.040809 -5.624983 0.000000 0.000000 0.000000 13.260705 25.882128 -25.460601 3.214315 -5.547001 0.155743 -3.686392 7.019261 10.232038 0.000000 0.000000 0.000000 -7.125000 0.000000 0.000000 -21.436825 19.987736 -13.807167 0.000000 0.000000 0.000000 -8.697463 33.093396 -29.055902 -5.536828 -9.487461 -0.459839 -9.680711 48.640600 47.829049 0.000000 0.000000 0.000000 7.125000 0.000000 0.000000 51.560366 72.578233 -36.284000
11.297784 21.067753 13.417114 6.372335 -7.007795 18.210607 0.000000 0.000000 0.000000 -15.088565 -13.834935 -51.615820 7.393117 15.646966 50.333710 0.024883 -2.647416 -3.148631 0.139493 2.404392 6.624683 0.000000 0.000000 0.000000 -0.252499 3.892640 -52.677667 -6.551560 -14.930610 47.136153 -0.018809 2.942544 -2.995832 -0.114878 -2.169555 5.974990 -2.734231 0.740289 14.275302 -1.521322 0.477740 2.979559 -0.140509 0.259686 -4.860233 -0.411983 -1.538353 1.055563 2.575442 -1.730442 -20.169908 0.989101 -1.022650 -6.250778 0.000000 0.000000 0.000000 12.871839 31.631938 -24.812985 3.173535 -5.477202 0.151833 -3.733397 6.082284 10.389006 0.000000 0.000000 0.000000 -7.125000 0.000000 0.000000 -21.446059 19.841182 -13.890775 0.000000 0.000000 0.000000 -7.981043 38.743502 -30.990640 -5.617309 -9.622306 -0.473218 -8.851121 46.304250 47.738242 0.000000 0.000000 0.000000 7.125000 0.000000 0.000000 52.021385 72.229530 -36.304300
11.337081 20.842692 13.248414 6.444941 -7.562513 19.572353 0.000000 0.000000 0.000000 -13.453317 -15.012457 -56.278430 8.484780 16.458231 54.280754 0.011163 -3.607550 -3.027921 0.102536 2.061405 5.675487 0.000000 0.000000 0.000000 -1.636452 4.746280 -57.763016 -7.869049 -16.011779 52.072455 -0.033847 3.765348 -3.915333 -0.058817 -1.557029 4.283091 -2.870783 0.791056 14.884360 -1.611081 0.496719 3.159599 -0.167015 0.269663 -5.002510 -0.275618 -1.519876 1.752122 2.502776 -1.694090 -21.380639 0.961784 -1.021675 -6.763521 0.000000 0.000000 0.000000 12.209597 37.313498 -24.135796 3.076984 -5.311587 0.142787 -3.442318 5.071222 10.745246 0.000000 0.000000 0.000000 -7.125000 0.000000 0.000000 -21.204258 19.508969 -13.880844 0.000000 0.000000 0.000000 -7.018387 44.437557 -32.099944 -5.708354 -9.774802 -0.488497 -8.120780 43.016304 47.515735 0.000000 0.000000 0.000000 7.125000 0.000000 0.000000 52.062843 71.844181 -35.949121
11.371920 20.588755 13.084123 6.557973 -8.021086 20.539765 0.000000 0.000000 0.000000 -11.945477 -15.936591 -60.386417 9.583894 17.167384 58.085952 -0.004794 -4.647582 -3.083961 0.068465 1.685884 4.638464 0.000000 0.000000 0.000000 -3.013732 5.470082 -62.237434 -9.256288 -16.966759 56.967975 -0.094463 3.974615 -5.722613 -0.040647 -1.300708 3.576643 -3.087331 0.828763 15.560091 -1.674609 0.484092 3.402721 -0.115216 0.264606 -5.112869 -0.199868 -1.515505 2.362270 2.477670 -1.676033 -22.330299 0.957324 -1.026743 -7.181318 0.000000 0.000000 0.000000 11.243891 42.829352 -23.396364 2.913172 -5.030691 0.128036 -2.934968 3.891219 11.301660 0.000000 0.000000 0.000000 -7.125000 0.000000 0.000000 -20.795180 18.987916 -13.834594 0.000000 0.000000 0.000000 -5.725356 50.055141 -33.050637 -5.777563 -9.890610 -0.500323 -7.467254 39.376347 47.249370 0.000000 0.000000 0.000000 7.125000 0.000000 0.000000 51.947077 71.462390 -35.470567
11.402782 20.305165 12.926855 6.702721 -8.368771 21.011091 0.000000 0.000000 0.000000 -10.681029 -16.612840 -63.734313 10.665907 17.762368 61.685060 -0.020369 -5.715364 -3.381872 0.039545 1.276613 3.510458 0.000000 0.000000 0.000000 -4.292871 6.050213 -65.937733 -10.707076 -17.778695 61.813879 -0.227814 3.385223 -8.442788 -0.032545 -1.161537 3.193350 -3.336909 0.857456 16.367411 -1.717715 0.448158 3.726027 -0.019188 0.247538 -5.206134 -0.204245 -1.514276 2.857417 2.533249 -1.656430 -23.003826 0.988516 -1.029360 -7.491108 0.000000 0.000000 0.000000 9.950711 48.044755 -22.568020 2.632114 -4.547733 0.104742 -2.570383 2.450969 11.871052 0.000000 0.000000 0.000000 -7.125000 0.000000 0.000000 -20.483140 18.452484 -13.859731 0.000000 0.000000 0.000000 -3.877476 55.453580 -34.761830 -5.789506 -9.910577 -0.502400 -6.818160 36.108142 46.801638 0.000000 0.000000 0.000000 7.125000 0.000000 0.000000 51.418264 70.977407 -34.563973
11.431343 20.000499 12.777186 6.828554 -8.630516 21.121502 0.000000 0.000000 0.000000 -9.616282 -17.107739 -66.470559 11.718844 18.266597 65.091825 -0.030795 -6.771544 -3.940020 0.025173 1.023313 2.812962 0.000000 0.000000 0.000000 -5.416730 6.561264 -69.016195 -12.182700 -18.461582 66.560859 -0.416534 2.167808 -11.618904 -0.016799 -0.828328 2.276544 -3.543252 0.884499 17.234785 -1.752745 0.413602 4.115117 0.061037 0.229414 -5.257765 -0.287474 -1.529141 3.198271 2.703900 -1.646028 -23.450183 1.067593 -1.038033 -7.697817 0.000000 0.000000 0.000000 8.432156 52.880760 -21.649849 2.237539 -3.868517 0.075812 -2.585652 0.786470 12.205990 0.000000 0.000000 0.000000 -7.125000 0.000000 0.000000 -20.452118 18.138503 -13.989543 0.000000 0.000000 0.000000 -1.360289 60.430890 -38.555185 -5.701194 -9.762781 -0.487322 -5.926037 34.163588 46.081404 0.000000 0.000000 0.000000 7.125000 0.000000 0.000000 50.528372 70.244792 -33.133765
11.457523 19.679166 12.637913 6.901244 -8.813654 20.985837 0.000000 0.000000 0.000000 -8.744561 -17.436064 -68.691310 12.726257 18.678616 68.270572 -0.027571 -7.793148 -4.840048 0.032102 1.150499 3.163090 0.000000 0.000000 0.000000 -6.334626 7.045590 -71.527824 -13.634202 -18.994591 71.080055 -0.620363 0.493185 -14.718066 -0.001252 -0.174637 0.479942 -3.667393 0.905070 18.027864 -1.791907 0.387699 4.565722 0.090541 0.212488 -5.199036 -0.426058 -1.571926 3.296769 3.026825 -1.650860 -23.687188 1.202700 -1.061065 -7.789378 0.000000 0.000000 0.000000 6.682605 57.188224 -20.572706 1.770047 -3.062352 0.047619 -3.131535 -1.135357 12.095847 0.000000 0.000000 0.000000 -7.125000 0.000000 0.000000 -20.823507 18.245131 -14.228189 0.000000 0.000000 0.000000 2.067683 64.666716 -45.996814 -5.499574 -9.424929 -0.453807 -4.491714 34.400079 45.147446 0.000000 0.000000 0.000000 7.125000 0.000000 0.000000 49.789134 69.195396 -31.506325
11.480574 19.348748 12.510847 6.926227 -8.953299 20.774761 0.000000 0.000000 0.000000 -8.046819 -17.634720 -70.593789 13.669754 19.007735 71.190701 -0.001665 -8.759246 -6.094318 0.066818 1.652590 4.546838 0.000000 0.000000 0.000000 -7.108194 7.553816 -73.591776 -14.967190 -19.376127 75.134053 -0.787438 -1.233472 -17.253016 -0.000592 0.154136 -0.423418 -3.736633 0.920208 18.650364 -1.842784 0.372365 5.033260 0.076188 0.198382 -5.027626 -0.547698 -1.639806 3.124111 3.429734 -1.674370 -23.776862 1.357846 -1.099917 -7.781686 0.000000 0.000000 0.000000 4.685644 60.936880 -19.284191 1.309187 -2.266184 0.026304 -4.022227 -3.329447 11.604845 0.000000 0.000000 0.000000 -7.125000 0.000000 0.000000 -21.469939 18.706245 -14.500781 0.000000 0.000000 0.000000 6.441598 68.074579 -56.921747 -5.287395 -9.068506 -0.419671 -2.517561 36.186585 44.297642 0.000000 0.000000 0.000000 7.125000 0.000000 0.000000 49.867673 68.026590 -30.353220
11.500659 19.015692 12.396306 6.947340 -9.061620 20.596692 0.000000 0.000000 0.000000 -7.528220 -17.774810 -72.324321 14.539959 19.269335 73.846575 0.052295 -9.636655 -7.624189 0.132376 2.342787 6.453942 0.000000 0.000000 0.000000 -7.814929 8.060608 -75.297676 -16.095235 -19.629834 78.514888 -0.917486 -2.748053 -19.284386 -0.000223 -0.072413 0.198989 -3.795457 0.921681 19.086380 -1.910415 0.349249 5.472812 0.041729 0.179772 -4.784850 -0.556668 -1.714561 2.733161 3.755737 -1.714186 -23.781908 1.465543 -1.147379 -7.708077 0.000000 0.000000 0.000000 2.425557 64.176072 -17.755187 0.914233 -1.582954 0.012630 -4.957090 -5.713351 11.045051 0.000000 0.000000 0.000000 -7.125000 0.000000 0.000000 -22.158109 19.225512 -14.764939 0.000000 0.000000 0.000000 11.593340 70.753817 -69.649652 -5.171704 -8.873747 -0.401572 -0.608826 38.219127 43.795066 0.000000 0.000000 0.000000 7.125000 0.000000 0.000000 50.640304 67.110742 -29.939397
